<svg xmlns="http://www.w3.org/2000/svg" viewBox="0 0 1600 900">
  <defs>
    <radialGradient id="glow" cx="14%" cy="12%" r="42%">
      <stop offset="0%" stop-color="#ffffff" stop-opacity="0.12" />
      <stop offset="100%" stop-color="#ffffff" stop-opacity="0" />
    </radialGradient>
    <radialGradient id="mist" cx="88%" cy="16%" r="32%">
      <stop offset="0%" stop-color="#ffffff" stop-opacity="0.08" />
      <stop offset="100%" stop-color="#ffffff" stop-opacity="0" />
    </radialGradient>
    <linearGradient id="ridge" x1="0" x2="1" y1="0" y2="1">
      <stop offset="0%" stop-color="#141414" />
      <stop offset="100%" stop-color="#080808" />
    </linearGradient>
  </defs>
  <rect width="1600" height="900" fill="url(#ridge)" />
  <rect width="1600" height="900" fill="url(#glow)" />
  <rect width="1600" height="900" fill="url(#mist)" />
  <path d="M0 684c187-92 333-123 536-107 192 15 282 69 453 65 139-3 301-48 611-164v422H0z" fill="#101010" />
  <path d="M0 758c216-73 384-88 557-52 180 37 314 92 506 87 180-5 360-59 537-140v240H0z" fill="#0d0d0d" />
  <g stroke="#ffffff" stroke-opacity="0.06">
    <path d="M0 120h1600" />
    <path d="M0 340h1600" />
    <path d="M0 560h1600" />
    <path d="M0 780h1600" />
    <path d="M210 0v900" />
    <path d="M690 0v900" />
    <path d="M1170 0v900" />
  </g>
</svg>
