<?xml version="1.0" encoding="UTF-8"?>
<!-- Do not edit this file with editors other than draw.io -->
<!DOCTYPE svg PUBLIC "-//W3C//DTD SVG 1.1//EN" "http://www.w3.org/Graphics/SVG/1.1/DTD/svg11.dtd">
<svg xmlns="http://www.w3.org/2000/svg" style="background: #ffffff; background-color: light-dark(#ffffff, var(--ge-dark-color, #121212)); color-scheme: light dark;" xmlns:xlink="http://www.w3.org/1999/xlink" version="1.1" width="994px" height="378px" viewBox="0 0 994 378" content="&lt;mxfile host=&quot;app.diagrams.net&quot; agent=&quot;Mozilla/5.0 (Macintosh; Intel Mac OS X 10_15_7) AppleWebKit/537.36 (KHTML, like Gecko) Chrome/147.0.0.0 Safari/537.36&quot; scale=&quot;1&quot; border=&quot;0&quot;&gt;&#10;  &lt;diagram name=&quot;Page-1&quot; id=&quot;Z3y6LM3TiemOySs5D3k4&quot;&gt;&#10;    &lt;mxGraphModel dx=&quot;2316&quot; dy=&quot;1474&quot; grid=&quot;1&quot; gridSize=&quot;10&quot; guides=&quot;1&quot; tooltips=&quot;1&quot; connect=&quot;1&quot; arrows=&quot;1&quot; fold=&quot;1&quot; page=&quot;1&quot; pageScale=&quot;1&quot; pageWidth=&quot;850&quot; pageHeight=&quot;1100&quot; math=&quot;0&quot; shadow=&quot;0&quot;&gt;&#10;      &lt;root&gt;&#10;        &lt;mxCell id=&quot;0&quot; /&gt;&#10;        &lt;mxCell id=&quot;1&quot; parent=&quot;0&quot; /&gt;&#10;        &lt;mxCell id=&quot;pErw04oOUeAEHbRT1Cwv-19&quot; parent=&quot;1&quot; style=&quot;whiteSpace=wrap;html=1;verticalAlign=top;fillColor=none;strokeColor=#E7157B;fontColor=#232F3E;sketch=0;dashed=0;fontStyle=0;&quot; value=&quot;&quot; vertex=&quot;1&quot;&gt;&#10;          &lt;mxGeometry height=&quot;160&quot; width=&quot;261.5&quot; x=&quot;358.5&quot; y=&quot;410&quot; as=&quot;geometry&quot; /&gt;&#10;        &lt;/mxCell&gt;&#10;        &lt;mxCell id=&quot;pErw04oOUeAEHbRT1Cwv-1&quot; parent=&quot;1&quot; style=&quot;text;html=0;strokeColor=none;fillColor=none;align=center;verticalAlign=middle;fontSize=22;fontStyle=1;fontColor=#1f2937;&quot; value=&quot;Lambda&quot; vertex=&quot;1&quot;&gt;&#10;          &lt;mxGeometry height=&quot;28&quot; width=&quot;180&quot; x=&quot;41&quot; y=&quot;421&quot; as=&quot;geometry&quot; /&gt;&#10;        &lt;/mxCell&gt;&#10;        &lt;mxCell id=&quot;pErw04oOUeAEHbRT1Cwv-2&quot; parent=&quot;1&quot; style=&quot;text;html=0;strokeColor=none;fillColor=none;align=center;verticalAlign=middle;fontSize=16;fontColor=#374151;&quot; value=&quot;collector&quot; vertex=&quot;1&quot;&gt;&#10;          &lt;mxGeometry height=&quot;24&quot; width=&quot;200&quot; x=&quot;31&quot; y=&quot;449&quot; as=&quot;geometry&quot; /&gt;&#10;        &lt;/mxCell&gt;&#10;        &lt;mxCell id=&quot;pErw04oOUeAEHbRT1Cwv-3&quot; parent=&quot;1&quot; style=&quot;text;html=0;strokeColor=none;fillColor=none;align=center;verticalAlign=middle;fontSize=22;fontStyle=1;fontColor=#1f2937;&quot; value=&quot;Lambda&quot; vertex=&quot;1&quot;&gt;&#10;          &lt;mxGeometry height=&quot;28&quot; width=&quot;180&quot; x=&quot;40&quot; y=&quot;629.5&quot; as=&quot;geometry&quot; /&gt;&#10;        &lt;/mxCell&gt;&#10;        &lt;mxCell id=&quot;pErw04oOUeAEHbRT1Cwv-4&quot; parent=&quot;1&quot; style=&quot;text;html=0;strokeColor=none;fillColor=none;align=center;verticalAlign=middle;fontSize=16;fontColor=#374151;&quot; value=&quot;admin&quot; vertex=&quot;1&quot;&gt;&#10;          &lt;mxGeometry height=&quot;24&quot; width=&quot;200&quot; x=&quot;30&quot; y=&quot;657.5&quot; as=&quot;geometry&quot; /&gt;&#10;        &lt;/mxCell&gt;&#10;        &lt;mxCell id=&quot;pErw04oOUeAEHbRT1Cwv-22&quot; edge=&quot;1&quot; parent=&quot;1&quot; source=&quot;pErw04oOUeAEHbRT1Cwv-5&quot; style=&quot;edgeStyle=orthogonalEdgeStyle;rounded=0;orthogonalLoop=1;jettySize=auto;html=1;entryX=0;entryY=0.5;entryDx=0;entryDy=0;&quot; target=&quot;pErw04oOUeAEHbRT1Cwv-19&quot;&gt;&#10;          &lt;mxGeometry relative=&quot;1&quot; as=&quot;geometry&quot; /&gt;&#10;        &lt;/mxCell&gt;&#10;        &lt;mxCell id=&quot;pErw04oOUeAEHbRT1Cwv-5&quot; parent=&quot;1&quot; style=&quot;sketch=0;points=[[0,0,0],[0.25,0,0],[0.5,0,0],[0.75,0,0],[1,0,0],[0,1,0],[0.25,1,0],[0.5,1,0],[0.75,1,0],[1,1,0],[0,0.25,0],[0,0.5,0],[0,0.75,0],[1,0.25,0],[1,0.5,0],[1,0.75,0]];outlineConnect=0;fontColor=#232F3E;fillColor=#ED7100;strokeColor=#ffffff;dashed=0;verticalLabelPosition=bottom;verticalAlign=top;align=center;html=1;fontSize=12;fontStyle=0;aspect=fixed;shape=mxgraph.aws4.resourceIcon;resIcon=mxgraph.aws4.lambda;&quot; value=&quot;&quot; vertex=&quot;1&quot;&gt;&#10;          &lt;mxGeometry height=&quot;78&quot; width=&quot;78&quot; x=&quot;91&quot; y=&quot;340&quot; as=&quot;geometry&quot; /&gt;&#10;        &lt;/mxCell&gt;&#10;        &lt;mxCell id=&quot;pErw04oOUeAEHbRT1Cwv-25&quot; edge=&quot;1&quot; parent=&quot;1&quot; source=&quot;pErw04oOUeAEHbRT1Cwv-6&quot; style=&quot;edgeStyle=orthogonalEdgeStyle;rounded=0;orthogonalLoop=1;jettySize=auto;html=1;entryX=0;entryY=0.5;entryDx=0;entryDy=0;&quot; target=&quot;pErw04oOUeAEHbRT1Cwv-19&quot;&gt;&#10;          &lt;mxGeometry relative=&quot;1&quot; as=&quot;geometry&quot; /&gt;&#10;        &lt;/mxCell&gt;&#10;        &lt;mxCell id=&quot;pErw04oOUeAEHbRT1Cwv-6&quot; parent=&quot;1&quot; style=&quot;sketch=0;points=[[0,0,0],[0.25,0,0],[0.5,0,0],[0.75,0,0],[1,0,0],[0,1,0],[0.25,1,0],[0.5,1,0],[0.75,1,0],[1,1,0],[0,0.25,0],[0,0.5,0],[0,0.75,0],[1,0.25,0],[1,0.5,0],[1,0.75,0]];outlineConnect=0;fontColor=#232F3E;fillColor=#ED7100;strokeColor=#ffffff;dashed=0;verticalLabelPosition=bottom;verticalAlign=top;align=center;html=1;fontSize=12;fontStyle=0;aspect=fixed;shape=mxgraph.aws4.resourceIcon;resIcon=mxgraph.aws4.lambda;&quot; value=&quot;&quot; vertex=&quot;1&quot;&gt;&#10;          &lt;mxGeometry height=&quot;78&quot; width=&quot;78&quot; x=&quot;91&quot; y=&quot;540&quot; as=&quot;geometry&quot; /&gt;&#10;        &lt;/mxCell&gt;&#10;        &lt;mxCell id=&quot;pErw04oOUeAEHbRT1Cwv-7&quot; parent=&quot;1&quot; style=&quot;text;html=0;strokeColor=none;fillColor=none;align=center;verticalAlign=middle;fontSize=22;fontStyle=1;fontColor=#1f2937;&quot; value=&quot;Metrics&quot; vertex=&quot;1&quot;&gt;&#10;          &lt;mxGeometry height=&quot;28&quot; width=&quot;175&quot; x=&quot;331&quot; y=&quot;538.5&quot; as=&quot;geometry&quot; /&gt;&#10;        &lt;/mxCell&gt;&#10;        &lt;mxCell id=&quot;pErw04oOUeAEHbRT1Cwv-8&quot; parent=&quot;1&quot; style=&quot;text;html=0;strokeColor=none;fillColor=none;align=center;verticalAlign=middle;fontSize=22;fontStyle=1;fontColor=#1f2937;&quot; value=&quot;Amazon SNS&quot; vertex=&quot;1&quot;&gt;&#10;          &lt;mxGeometry height=&quot;28&quot; width=&quot;175&quot; x=&quot;658.5&quot; y=&quot;537.5&quot; as=&quot;geometry&quot; /&gt;&#10;        &lt;/mxCell&gt;&#10;        &lt;mxCell id=&quot;pErw04oOUeAEHbRT1Cwv-9&quot; parent=&quot;1&quot; style=&quot;sketch=0;points=[[0,0,0],[0.25,0,0],[0.5,0,0],[0.75,0,0],[1,0,0],[0,1,0],[0.25,1,0],[0.5,1,0],[0.75,1,0],[1,1,0],[0,0.25,0],[0,0.5,0],[0,0.75,0],[1,0.25,0],[1,0.5,0],[1,0.75,0]];points=[[0,0,0],[0.25,0,0],[0.5,0,0],[0.75,0,0],[1,0,0],[0,1,0],[0.25,1,0],[0.5,1,0],[0.75,1,0],[1,1,0],[0,0.25,0],[0,0.5,0],[0,0.75,0],[1,0.25,0],[1,0.5,0],[1,0.75,0]];outlineConnect=0;fontColor=#232F3E;fillColor=#E7157B;strokeColor=#ffffff;dashed=0;verticalLabelPosition=bottom;verticalAlign=top;align=center;html=1;fontSize=12;fontStyle=0;aspect=fixed;shape=mxgraph.aws4.resourceIcon;resIcon=mxgraph.aws4.cloudwatch_2;&quot; value=&quot;&quot; vertex=&quot;1&quot;&gt;&#10;          &lt;mxGeometry height=&quot;78&quot; width=&quot;78&quot; x=&quot;446.5&quot; y=&quot;304&quot; as=&quot;geometry&quot; /&gt;&#10;        &lt;/mxCell&gt;&#10;        &lt;mxCell id=&quot;pErw04oOUeAEHbRT1Cwv-10&quot; parent=&quot;1&quot; style=&quot;sketch=0;points=[[0,0,0],[0.25,0,0],[0.5,0,0],[0.75,0,0],[1,0,0],[0,1,0],[0.25,1,0],[0.5,1,0],[0.75,1,0],[1,1,0],[0,0.25,0],[0,0.5,0],[0,0.75,0],[1,0.25,0],[1,0.5,0],[1,0.75,0]];outlineConnect=0;fontColor=#232F3E;fillColor=#E7157B;strokeColor=#ffffff;dashed=0;verticalLabelPosition=bottom;verticalAlign=top;align=center;html=1;fontSize=12;fontStyle=0;aspect=fixed;shape=mxgraph.aws4.resourceIcon;resIcon=mxgraph.aws4.sns;&quot; value=&quot;&quot; vertex=&quot;1&quot;&gt;&#10;          &lt;mxGeometry height=&quot;78&quot; width=&quot;78&quot; x=&quot;699.5&quot; y=&quot;451.5&quot; as=&quot;geometry&quot; /&gt;&#10;        &lt;/mxCell&gt;&#10;        &lt;mxCell id=&quot;pErw04oOUeAEHbRT1Cwv-13&quot; parent=&quot;1&quot; style=&quot;verticalLabelPosition=bottom;html=1;verticalAlign=top;align=center;strokeColor=none;fillColor=#00BEF2;shape=mxgraph.azure.notification_topic;&quot; value=&quot;&quot; vertex=&quot;1&quot;&gt;&#10;          &lt;mxGeometry height=&quot;90&quot; width=&quot;90&quot; x=&quot;891&quot; y=&quot;445.5&quot; as=&quot;geometry&quot; /&gt;&#10;        &lt;/mxCell&gt;&#10;        &lt;mxCell id=&quot;pErw04oOUeAEHbRT1Cwv-14&quot; parent=&quot;1&quot; style=&quot;text;html=0;strokeColor=none;fillColor=none;align=center;verticalAlign=middle;fontSize=22;fontStyle=1;fontColor=#1f2937;&quot; value=&quot;Notification&quot; vertex=&quot;1&quot;&gt;&#10;          &lt;mxGeometry height=&quot;28&quot; width=&quot;175&quot; x=&quot;848.5&quot; y=&quot;537.5&quot; as=&quot;geometry&quot; /&gt;&#10;        &lt;/mxCell&gt;&#10;        &lt;mxCell id=&quot;pErw04oOUeAEHbRT1Cwv-15&quot; edge=&quot;1&quot; parent=&quot;1&quot; source=&quot;pErw04oOUeAEHbRT1Cwv-10&quot; style=&quot;edgeStyle=orthogonalEdgeStyle;rounded=0;orthogonalLoop=1;jettySize=auto;html=1;entryX=0;entryY=0.5;entryDx=0;entryDy=0;entryPerimeter=0;&quot; target=&quot;pErw04oOUeAEHbRT1Cwv-13&quot;&gt;&#10;          &lt;mxGeometry relative=&quot;1&quot; as=&quot;geometry&quot; /&gt;&#10;        &lt;/mxCell&gt;&#10;        &lt;mxCell id=&quot;pErw04oOUeAEHbRT1Cwv-26&quot; edge=&quot;1&quot; parent=&quot;1&quot; source=&quot;pErw04oOUeAEHbRT1Cwv-16&quot; style=&quot;edgeStyle=orthogonalEdgeStyle;rounded=0;orthogonalLoop=1;jettySize=auto;html=1;&quot; target=&quot;pErw04oOUeAEHbRT1Cwv-17&quot;&gt;&#10;          &lt;mxGeometry relative=&quot;1&quot; as=&quot;geometry&quot; /&gt;&#10;        &lt;/mxCell&gt;&#10;        &lt;mxCell id=&quot;pErw04oOUeAEHbRT1Cwv-16&quot; parent=&quot;1&quot; style=&quot;sketch=0;outlineConnect=0;fontColor=#232F3E;gradientColor=none;fillColor=#E7157B;strokeColor=none;dashed=0;verticalLabelPosition=bottom;verticalAlign=top;align=center;html=1;fontSize=12;fontStyle=0;aspect=fixed;pointerEvents=1;shape=mxgraph.aws4.cloudwatch_metrics_insights;&quot; value=&quot;&quot; vertex=&quot;1&quot;&gt;&#10;          &lt;mxGeometry height=&quot;78&quot; width=&quot;77&quot; x=&quot;381.5&quot; y=&quot;452&quot; as=&quot;geometry&quot; /&gt;&#10;        &lt;/mxCell&gt;&#10;        &lt;mxCell id=&quot;pErw04oOUeAEHbRT1Cwv-27&quot; edge=&quot;1&quot; parent=&quot;1&quot; source=&quot;pErw04oOUeAEHbRT1Cwv-17&quot; style=&quot;edgeStyle=orthogonalEdgeStyle;rounded=0;orthogonalLoop=1;jettySize=auto;html=1;&quot; target=&quot;pErw04oOUeAEHbRT1Cwv-10&quot;&gt;&#10;          &lt;mxGeometry relative=&quot;1&quot; as=&quot;geometry&quot; /&gt;&#10;        &lt;/mxCell&gt;&#10;        &lt;mxCell id=&quot;pErw04oOUeAEHbRT1Cwv-17&quot; parent=&quot;1&quot; style=&quot;sketch=0;outlineConnect=0;fontColor=#232F3E;gradientColor=none;fillColor=#E7157B;strokeColor=none;dashed=0;verticalLabelPosition=bottom;verticalAlign=top;align=center;html=1;fontSize=12;fontStyle=0;aspect=fixed;pointerEvents=1;shape=mxgraph.aws4.alarm;&quot; value=&quot;&quot; vertex=&quot;1&quot;&gt;&#10;          &lt;mxGeometry height=&quot;78&quot; width=&quot;78&quot; x=&quot;518.5&quot; y=&quot;452&quot; as=&quot;geometry&quot; /&gt;&#10;        &lt;/mxCell&gt;&#10;        &lt;mxCell id=&quot;pErw04oOUeAEHbRT1Cwv-18&quot; parent=&quot;1&quot; style=&quot;text;html=0;strokeColor=none;fillColor=none;align=center;verticalAlign=middle;fontSize=22;fontStyle=1;fontColor=#1f2937;&quot; value=&quot;Alarms&quot; vertex=&quot;1&quot;&gt;&#10;          &lt;mxGeometry height=&quot;28&quot; width=&quot;175&quot; x=&quot;470&quot; y=&quot;540&quot; as=&quot;geometry&quot; /&gt;&#10;        &lt;/mxCell&gt;&#10;        &lt;mxCell id=&quot;pErw04oOUeAEHbRT1Cwv-21&quot; parent=&quot;1&quot; style=&quot;text;html=0;strokeColor=none;fillColor=none;align=center;verticalAlign=middle;fontSize=22;fontStyle=1;fontColor=#1f2937;&quot; value=&quot;CloudWatch&quot; vertex=&quot;1&quot;&gt;&#10;          &lt;mxGeometry height=&quot;28&quot; width=&quot;175&quot; x=&quot;398&quot; y=&quot;382&quot; as=&quot;geometry&quot; /&gt;&#10;        &lt;/mxCell&gt;&#10;      &lt;/root&gt;&#10;    &lt;/mxGraphModel&gt;&#10;  &lt;/diagram&gt;&#10;&lt;/mxfile&gt;&#10;"><defs/><rect fill="#ffffff" width="100%" height="100%" x="0" y="0" style="fill: light-dark(#ffffff, var(--ge-dark-color, #121212));"/><g><g data-cell-id="0"><g data-cell-id="1"><g data-cell-id="pErw04oOUeAEHbRT1Cwv-19"><g transform="translate(0.5,0.5)"><rect x="328.5" y="106" width="261.5" height="160" fill="none" stroke="#e7157b" pointer-events="all" style="stroke: light-dark(rgb(231, 21, 123), rgb(255, 129, 217));"/></g></g><g data-cell-id="pErw04oOUeAEHbRT1Cwv-1"><g transform="translate(0.5,0.5)"><rect x="11" y="117" width="180" height="28" fill="none" stroke="none" pointer-events="all"/></g><g><g fill="#1f2937" font-family="Helvetica" font-weight="bold" text-anchor="middle" font-size="22px" style="fill: light-dark(rgb(31, 41, 55), rgb(196, 204, 216));"><text x="101" y="141">Lambda</text></g></g></g><g data-cell-id="pErw04oOUeAEHbRT1Cwv-2"><g transform="translate(0.5,0.5)"><rect x="1" y="145" width="200" height="24" fill="none" stroke="none" pointer-events="all"/></g><g><g fill="#374151" font-family="Helvetica" text-anchor="middle" font-size="16px" style="fill: light-dark(rgb(55, 65, 81), rgb(174, 183, 197));"><text x="101" y="164">collector</text></g></g></g><g data-cell-id="pErw04oOUeAEHbRT1Cwv-3"><g transform="translate(0.5,0.5)"><rect x="10" y="325.5" width="180" height="28" fill="none" stroke="none" pointer-events="all"/></g><g><g fill="#1f2937" font-family="Helvetica" font-weight="bold" text-anchor="middle" font-size="22px" style="fill: light-dark(rgb(31, 41, 55), rgb(196, 204, 216));"><text x="100" y="349.5">Lambda</text></g></g></g><g data-cell-id="pErw04oOUeAEHbRT1Cwv-4"><g transform="translate(0.5,0.5)"><rect x="0" y="353.5" width="200" height="24" fill="none" stroke="none" pointer-events="all"/></g><g><g fill="#374151" font-family="Helvetica" text-anchor="middle" font-size="16px" style="fill: light-dark(rgb(55, 65, 81), rgb(174, 183, 197));"><text x="100" y="372.5">admin</text></g></g></g><g data-cell-id="pErw04oOUeAEHbRT1Cwv-22"><g transform="translate(0.5,0.5)"><path d="M 139 75 L 233.8 75 L 233.8 186 L 322.13 186" fill="none" stroke="#000000" stroke-miterlimit="10" pointer-events="stroke" style="stroke: light-dark(rgb(0, 0, 0), rgb(255, 255, 255));"/><path d="M 327.38 186 L 320.38 189.5 L 322.13 186 L 320.38 182.5 Z" fill="#000000" stroke="#000000" stroke-miterlimit="10" pointer-events="all" style="fill: light-dark(rgb(0, 0, 0), rgb(255, 255, 255)); stroke: light-dark(rgb(0, 0, 0), rgb(255, 255, 255));"/></g></g><g data-cell-id="pErw04oOUeAEHbRT1Cwv-5"><g transform="translate(0.5,0.5)"><path d="M 61 36 L 139 36 L 139 114 L 61 114 Z" fill="#ed7100" stroke="none" pointer-events="all" style="fill: light-dark(rgb(237, 113, 0), rgb(216, 109, 12));"/><path d="M 86.67 103.97 L 72.83 103.97 L 88.13 71.99 L 95.06 86.26 Z M 89.13 68.93 C 88.94 68.55 88.55 68.3 88.13 68.3 L 88.12 68.3 C 87.69 68.3 87.3 68.55 87.12 68.94 L 70.05 104.61 C 69.89 104.95 69.91 105.36 70.11 105.68 C 70.32 106 70.68 106.2 71.06 106.2 L 87.37 106.2 C 87.8 106.2 88.2 105.95 88.38 105.56 L 97.31 86.73 C 97.46 86.43 97.46 86.07 97.31 85.77 Z M 127.88 103.97 L 114.13 103.97 L 92.08 57.81 C 91.9 57.42 91.5 57.17 91.07 57.17 L 82.08 57.17 L 82.09 46.03 L 99.72 46.03 L 121.67 92.19 C 121.85 92.58 122.25 92.83 122.68 92.83 L 127.88 92.83 Z M 129 90.6 L 123.38 90.6 L 101.43 44.44 C 101.25 44.05 100.85 43.8 100.42 43.8 L 80.97 43.8 C 80.36 43.8 79.86 44.3 79.85 44.91 L 79.84 58.28 C 79.84 58.58 79.96 58.86 80.17 59.07 C 80.38 59.28 80.66 59.4 80.96 59.4 L 90.37 59.4 L 112.42 105.56 C 112.61 105.95 113 106.2 113.43 106.2 L 129 106.2 C 129.61 106.2 130.11 105.7 130.11 105.09 L 130.11 91.71 C 130.11 91.1 129.61 90.6 129 90.6 Z" fill="#ffffff" stroke="none" pointer-events="all" style="fill: light-dark(rgb(255, 255, 255), rgb(18, 18, 18));"/></g></g><g data-cell-id="pErw04oOUeAEHbRT1Cwv-25"><g transform="translate(0.5,0.5)"><path d="M 139 275 L 233.8 275 L 233.8 186 L 322.13 186" fill="none" stroke="#000000" stroke-miterlimit="10" pointer-events="stroke" style="stroke: light-dark(rgb(0, 0, 0), rgb(255, 255, 255));"/><path d="M 327.38 186 L 320.38 189.5 L 322.13 186 L 320.38 182.5 Z" fill="#000000" stroke="#000000" stroke-miterlimit="10" pointer-events="all" style="fill: light-dark(rgb(0, 0, 0), rgb(255, 255, 255)); stroke: light-dark(rgb(0, 0, 0), rgb(255, 255, 255));"/></g></g><g data-cell-id="pErw04oOUeAEHbRT1Cwv-6"><g transform="translate(0.5,0.5)"><path d="M 61 236 L 139 236 L 139 314 L 61 314 Z" fill="#ed7100" stroke="none" pointer-events="all" style="fill: light-dark(rgb(237, 113, 0), rgb(216, 109, 12));"/><path d="M 86.67 303.97 L 72.83 303.97 L 88.13 271.99 L 95.06 286.26 Z M 89.13 268.93 C 88.94 268.55 88.55 268.3 88.13 268.3 L 88.12 268.3 C 87.69 268.3 87.3 268.55 87.12 268.94 L 70.05 304.61 C 69.89 304.95 69.91 305.36 70.11 305.68 C 70.32 306 70.68 306.2 71.06 306.2 L 87.37 306.2 C 87.8 306.2 88.2 305.95 88.38 305.56 L 97.31 286.73 C 97.46 286.43 97.46 286.07 97.31 285.77 Z M 127.88 303.97 L 114.13 303.97 L 92.08 257.81 C 91.9 257.42 91.5 257.17 91.07 257.17 L 82.08 257.17 L 82.09 246.03 L 99.72 246.03 L 121.67 292.19 C 121.85 292.58 122.25 292.83 122.68 292.83 L 127.88 292.83 Z M 129 290.6 L 123.38 290.6 L 101.43 244.44 C 101.25 244.05 100.85 243.8 100.42 243.8 L 80.97 243.8 C 80.36 243.8 79.86 244.3 79.85 244.91 L 79.84 258.28 C 79.84 258.58 79.96 258.86 80.17 259.07 C 80.38 259.28 80.66 259.4 80.96 259.4 L 90.37 259.4 L 112.42 305.56 C 112.61 305.95 113 306.2 113.43 306.2 L 129 306.2 C 129.61 306.2 130.11 305.7 130.11 305.09 L 130.11 291.71 C 130.11 291.1 129.61 290.6 129 290.6 Z" fill="#ffffff" stroke="none" pointer-events="all" style="fill: light-dark(rgb(255, 255, 255), rgb(18, 18, 18));"/></g></g><g data-cell-id="pErw04oOUeAEHbRT1Cwv-7"><g transform="translate(0.5,0.5)"><rect x="301" y="234.5" width="175" height="28" fill="none" stroke="none" pointer-events="all"/></g><g><g fill="#1f2937" font-family="Helvetica" font-weight="bold" text-anchor="middle" font-size="22px" style="fill: light-dark(rgb(31, 41, 55), rgb(196, 204, 216));"><text x="388.5" y="258.5">Metrics</text></g></g></g><g data-cell-id="pErw04oOUeAEHbRT1Cwv-8"><g transform="translate(0.5,0.5)"><rect x="628.5" y="233.5" width="175" height="28" fill="none" stroke="none" pointer-events="all"/></g><g><g fill="#1f2937" font-family="Helvetica" font-weight="bold" text-anchor="middle" font-size="22px" style="fill: light-dark(rgb(31, 41, 55), rgb(196, 204, 216));"><text x="716" y="257.5">Amazon SNS</text></g></g></g><g data-cell-id="pErw04oOUeAEHbRT1Cwv-9"><g transform="translate(0.5,0.5)"><path d="M 416.5 0 L 494.5 0 L 494.5 78 L 416.5 78 Z" fill="#e7157b" stroke="none" pointer-events="all" style="fill: light-dark(rgb(231, 21, 123), rgb(255, 129, 217));"/><path d="M 471.95 47.15 C 471.95 42.83 468.41 39.31 464.05 39.31 C 459.7 39.31 456.15 42.83 456.15 47.15 C 456.15 51.48 459.7 55 464.05 55 C 468.41 55 471.95 51.48 471.95 47.15 M 474.17 47.15 C 474.17 52.7 469.63 57.21 464.05 57.21 C 458.47 57.21 453.93 52.7 453.93 47.15 C 453.93 41.61 458.47 37.1 464.05 37.1 C 469.63 37.1 474.17 41.61 474.17 47.15 M 483.51 62.31 L 475.76 55.37 C 475.13 56.25 474.41 57.05 473.6 57.76 L 481.35 64.7 C 482.01 65.29 483.04 65.24 483.63 64.58 C 484.23 63.93 484.17 62.91 483.51 62.31 M 464.05 59.2 C 470.74 59.2 476.18 53.8 476.18 47.15 C 476.18 40.51 470.74 35.11 464.05 35.11 C 457.37 35.11 451.93 40.51 451.93 47.15 C 451.93 53.8 457.37 59.2 464.05 59.2 M 485.29 66.06 C 484.53 66.9 483.48 67.32 482.43 67.32 C 481.51 67.32 480.59 67 479.86 66.34 L 471.81 59.13 C 469.57 60.57 466.91 61.41 464.05 61.41 C 456.14 61.41 449.7 55.01 449.7 47.15 C 449.7 39.3 456.14 32.9 464.05 32.9 C 471.96 32.9 478.4 39.3 478.4 47.15 C 478.4 49.41 477.86 51.54 476.91 53.43 L 485 60.67 C 486.57 62.08 486.7 64.5 485.29 66.06 M 434.57 27.92 C 434.57 28.49 434.6 29.06 434.67 29.62 C 434.71 29.93 434.61 30.25 434.4 30.49 C 434.23 30.67 434.01 30.8 433.76 30.84 C 431.03 31.54 426.52 33.67 426.52 40.04 C 426.52 44.85 429.2 47.5 431.44 48.89 C 432.2 49.36 433.11 49.62 434.06 49.63 L 447.48 49.64 L 447.48 51.85 L 434.05 51.84 C 432.67 51.83 431.36 51.45 430.26 50.76 C 428.04 49.39 424.3 46.17 424.3 40.04 C 424.3 32.64 429.39 29.91 432.38 28.94 C 432.36 28.6 432.34 28.26 432.34 27.92 C 432.34 21.88 436.47 15.61 441.94 13.34 C 448.34 10.68 455.12 12 460.07 16.87 C 461.61 18.38 462.87 20.22 463.84 22.34 C 465.14 21.26 466.74 20.67 468.43 20.67 C 471.76 20.67 475.5 23.18 476.16 28.66 C 479.27 29.37 485.85 31.86 485.85 40.12 C 485.85 43.42 484.81 46.15 482.75 48.22 L 481.17 46.67 C 482.8 45.03 483.62 42.82 483.62 40.12 C 483.62 32.9 477.53 31.1 474.91 30.66 C 474.61 30.61 474.35 30.44 474.18 30.2 C 474.01 29.96 473.95 29.66 474 29.38 C 473.64 24.89 470.95 22.88 468.43 22.88 C 466.84 22.88 465.35 23.65 464.34 24.99 C 464.1 25.32 463.7 25.48 463.29 25.43 C 462.89 25.37 462.55 25.09 462.41 24.71 C 461.5 22.2 460.18 20.09 458.51 18.44 C 454.21 14.22 448.34 13.08 442.8 15.38 C 438.18 17.29 434.57 22.8 434.57 27.92" fill="#ffffff" stroke="none" pointer-events="all" style="fill: light-dark(rgb(255, 255, 255), rgb(18, 18, 18));"/></g></g><g data-cell-id="pErw04oOUeAEHbRT1Cwv-10"><g transform="translate(0.5,0.5)"><path d="M 669.5 147.5 L 747.5 147.5 L 747.5 225.5 L 669.5 225.5 Z" fill="#e7157b" stroke="none" pointer-events="all" style="fill: light-dark(rgb(231, 21, 123), rgb(255, 129, 217));"/><path d="M 681.84 184.23 C 683.09 184.23 684.11 185.25 684.11 186.5 C 684.11 187.75 683.09 188.77 681.84 188.77 C 680.59 188.77 679.57 187.75 679.57 186.5 C 679.57 185.25 680.59 184.23 681.84 184.23 Z M 709.07 213.73 C 695.81 213.73 684.44 204.05 682.06 191.02 C 684.07 190.92 685.73 189.52 686.21 187.63 L 693.18 187.63 L 693.18 185.37 L 686.21 185.37 C 685.73 183.48 684.07 182.08 682.06 181.98 C 684.43 169.15 696.03 159.27 709.07 159.27 C 713.96 159.27 719.09 161.11 724.3 164.74 L 725.6 162.88 C 720 158.98 714.43 157 709.07 157 C 694.62 157 681.78 168.19 679.64 182.55 C 678.25 183.33 677.3 184.8 677.3 186.5 C 677.3 188.2 678.25 189.67 679.64 190.45 C 681.8 205.04 694.38 216 709.07 216 C 715.2 216 721.48 213.91 726.75 210.11 L 725.42 208.27 C 720.54 211.79 714.73 213.73 709.07 213.73 Z M 696.7 182.46 C 698.81 182.98 701.44 183.1 703.39 183.1 C 705.26 183.1 707.73 182.99 709.78 182.54 L 704.65 192.8 C 704.57 192.96 704.53 193.13 704.53 193.31 L 704.53 198.36 C 703.62 198.94 702.07 199.9 701.13 200.1 L 701.13 193.31 C 701.13 193.16 701.1 193.01 701.04 192.87 Z M 703.39 178.56 C 707.96 178.56 710.4 179.24 711.16 179.69 C 710.4 180.14 707.96 180.83 703.39 180.83 C 698.83 180.83 696.39 180.14 695.63 179.69 C 696.39 179.24 698.83 178.56 703.39 178.56 Z M 699.99 202.38 L 701.13 202.38 C 701.17 202.38 701.22 202.38 701.27 202.37 C 702.66 202.19 704.43 201.12 705.97 200.13 L 706.27 199.94 C 706.6 199.73 706.8 199.37 706.8 198.98 L 706.8 193.58 L 713.11 180.96 C 713.42 180.6 713.61 180.19 713.61 179.69 C 713.61 176.73 707.21 176.29 703.39 176.29 C 699.58 176.29 693.18 176.73 693.18 179.69 C 693.18 180.11 693.32 180.47 693.55 180.79 L 698.86 193.53 L 698.86 201.25 C 698.86 201.88 699.36 202.38 699.99 202.38 Z M 732.89 201.25 C 734.14 201.25 735.16 202.27 735.16 203.52 C 735.16 204.77 734.14 205.79 732.89 205.79 C 731.64 205.79 730.62 204.77 730.62 203.52 C 730.62 202.27 731.64 201.25 732.89 201.25 Z M 732.89 167.21 C 734.14 167.21 735.16 168.23 735.16 169.48 C 735.16 170.73 734.14 171.75 732.89 171.75 C 731.64 171.75 730.62 170.73 730.62 169.48 C 730.62 168.23 731.64 167.21 732.89 167.21 Z M 735.16 184.23 C 736.41 184.23 737.43 185.25 737.43 186.5 C 737.43 187.75 736.41 188.77 735.16 188.77 C 733.91 188.77 732.89 187.75 732.89 186.5 C 732.89 185.25 733.91 184.23 735.16 184.23 Z M 723.82 187.63 L 730.79 187.63 C 731.29 189.59 733.05 191.04 735.16 191.04 C 737.66 191.04 739.7 189 739.7 186.5 C 739.7 184 737.66 181.96 735.16 181.96 C 733.05 181.96 731.29 183.41 730.79 185.37 L 723.82 185.37 L 723.82 170.62 L 728.52 170.62 C 729.02 172.57 730.78 174.02 732.89 174.02 C 735.4 174.02 737.43 171.98 737.43 169.48 C 737.43 166.98 735.4 164.94 732.89 164.94 C 730.78 164.94 729.02 166.4 728.52 168.35 L 722.68 168.35 C 722.05 168.35 721.55 168.86 721.55 169.48 L 721.55 185.37 L 713.61 185.37 L 713.61 187.63 L 721.55 187.63 L 721.55 203.52 C 721.55 204.14 722.05 204.65 722.68 204.65 L 728.52 204.65 C 729.02 206.6 730.78 208.06 732.89 208.06 C 735.4 208.06 737.43 206.02 737.43 203.52 C 737.43 201.02 735.4 198.98 732.89 198.98 C 730.78 198.98 729.02 200.43 728.52 202.38 L 723.82 202.38 Z" fill="#ffffff" stroke="none" pointer-events="all" style="fill: light-dark(rgb(255, 255, 255), rgb(18, 18, 18));"/></g></g><g data-cell-id="pErw04oOUeAEHbRT1Cwv-13"><g transform="translate(0.5,0.5)"><path d="M 861 151.06 C 861.23 145.92 865.3 141.78 870.42 141.5 L 940.47 141.5 C 945.81 141.68 950.23 145.73 950.9 151.06 L 950.9 198.56 C 951 201.45 949.94 204.27 947.97 206.39 C 946 208.5 943.26 209.75 940.38 209.84 L 915.7 209.84 L 918.42 231.5 L 888.12 209.84 L 871.43 209.84 C 865.67 209.6 861.09 204.89 861 199.1 Z M 876.6 192.92 C 875.7 194.12 875.53 195.72 876.15 197.09 C 876.78 198.46 878.1 199.37 879.6 199.47 L 931.85 199.47 C 933.27 199.44 934.57 198.68 935.29 197.46 C 936.01 196.23 936.05 194.72 935.39 193.46 L 909.26 149.69 C 908.4 148.65 907.12 148.04 905.77 148.04 C 904.42 148.04 903.14 148.65 902.28 149.69 Z M 903.46 181.09 L 902.55 162.79 L 909.35 162.79 L 908.35 181.09 Z M 902 187.73 C 901.86 189.18 902.56 190.59 903.79 191.36 C 905.03 192.14 906.6 192.14 907.83 191.36 C 909.07 190.59 909.77 189.18 909.62 187.73 C 909.43 185.76 907.78 184.26 905.81 184.26 C 903.84 184.26 902.2 185.76 902 187.73 Z" fill="#00bef2" stroke="none" pointer-events="all" style="fill: light-dark(rgb(0, 190, 242), rgb(0, 137, 182));"/></g></g><g data-cell-id="pErw04oOUeAEHbRT1Cwv-14"><g transform="translate(0.5,0.5)"><rect x="818.5" y="233.5" width="175" height="28" fill="none" stroke="none" pointer-events="all"/></g><g><g fill="#1f2937" font-family="Helvetica" font-weight="bold" text-anchor="middle" font-size="22px" style="fill: light-dark(rgb(31, 41, 55), rgb(196, 204, 216));"><text x="906" y="257.5">Notification</text></g></g></g><g data-cell-id="pErw04oOUeAEHbRT1Cwv-15"><g transform="translate(0.5,0.5)"><path d="M 747.5 186.5 L 854.63 186.5" fill="none" stroke="#000000" stroke-miterlimit="10" pointer-events="stroke" style="stroke: light-dark(rgb(0, 0, 0), rgb(255, 255, 255));"/><path d="M 859.88 186.5 L 852.88 190 L 854.63 186.5 L 852.88 183 Z" fill="#000000" stroke="#000000" stroke-miterlimit="10" pointer-events="all" style="fill: light-dark(rgb(0, 0, 0), rgb(255, 255, 255)); stroke: light-dark(rgb(0, 0, 0), rgb(255, 255, 255));"/></g></g><g data-cell-id="pErw04oOUeAEHbRT1Cwv-26"><g transform="translate(0.5,0.5)"><path d="M 428.11 187 L 482.35 187" fill="none" stroke="#000000" stroke-miterlimit="10" pointer-events="stroke" style="stroke: light-dark(rgb(0, 0, 0), rgb(255, 255, 255));"/><path d="M 487.6 187 L 480.6 190.5 L 482.35 187 L 480.6 183.5 Z" fill="#000000" stroke="#000000" stroke-miterlimit="10" pointer-events="all" style="fill: light-dark(rgb(0, 0, 0), rgb(255, 255, 255)); stroke: light-dark(rgb(0, 0, 0), rgb(255, 255, 255));"/></g></g><g data-cell-id="pErw04oOUeAEHbRT1Cwv-16"><g transform="translate(0.5,0.5)"><rect x="351.5" y="148" width="77" height="78" fill="none" stroke="none" pointer-events="all"/><path d="M 382.04 205.95 L 382.03 193.95 C 380.34 194.57 378.14 194.94 375.54 194.94 C 373.28 194.94 370.15 194.63 367.81 193.74 L 367.84 206.06 C 367.93 206.16 368.78 206.85 371.2 207.26 C 371.86 207.37 372.52 207.45 373.19 207.49 L 374.05 207.54 L 375.82 207.54 L 376.68 207.49 L 378.66 207.26 C 381.08 206.85 381.93 206.16 382.04 205.95 Z M 374.93 188.8 C 371.35 188.8 369.22 189.53 368.31 190.06 C 369.2 190.58 371.74 191.39 375.54 191.39 C 379.27 191.39 381.16 190.59 381.83 190.14 C 381.18 189.73 378.97 188.8 374.93 188.8 Z M 374.93 185.25 C 380.23 185.25 385.57 186.81 385.57 190.3 L 385.57 206.06 C 385.57 207.41 384.75 209.82 379.26 210.75 C 378.49 210.88 377.71 210.97 376.93 211.03 L 375.95 211.08 L 374.93 211.1 C 374.59 211.1 374.25 211.09 373.92 211.08 L 372.93 211.03 L 370.61 210.75 C 365.12 209.82 364.3 207.41 364.3 206.06 L 364.3 190.3 C 364.3 186.81 369.64 185.25 374.93 185.25 Z M 419.25 154.2 C 419.25 155.15 419.76 156.03 420.58 156.51 C 421.4 156.98 422.42 156.98 423.24 156.51 C 424.06 156.03 424.57 155.15 424.57 154.2 C 424.57 153.25 424.06 152.38 423.24 151.9 C 422.42 151.43 421.4 151.43 420.58 151.9 C 419.76 152.38 419.25 153.25 419.25 154.2 Z M 401.52 184.34 C 401.52 183.39 401.02 182.51 400.19 182.04 C 399.37 181.56 398.36 181.56 397.53 182.04 C 396.71 182.51 396.2 183.39 396.2 184.34 C 396.2 185.29 396.71 186.17 397.53 186.64 C 398.36 187.12 399.37 187.12 400.19 186.64 C 401.02 186.17 401.52 185.29 401.52 184.34 Z M 377.59 165.73 C 378.54 165.73 379.42 165.22 379.89 164.4 C 380.37 163.58 380.37 162.56 379.89 161.74 C 379.42 160.92 378.54 160.41 377.59 160.41 C 376.64 160.41 375.76 160.92 375.29 161.74 C 374.81 162.56 374.81 163.58 375.29 164.4 C 375.76 165.22 376.64 165.73 377.59 165.73 Z M 415.7 154.2 C 415.7 150.78 418.49 148 421.91 148 C 425.33 148 428.11 150.78 428.11 154.2 C 428.11 157.63 425.33 160.41 421.91 160.41 C 421.52 160.41 421.13 160.37 420.75 160.29 L 404.56 181.88 C 404.88 182.64 405.07 183.47 405.07 184.34 C 405.07 187.76 402.28 190.55 398.86 190.55 C 395.44 190.55 392.66 187.76 392.66 184.34 C 392.66 183.39 392.89 182.49 393.28 181.69 L 380.25 168.65 C 379.44 169.04 378.54 169.27 377.59 169.27 C 374.17 169.27 371.39 166.49 371.39 163.07 C 371.39 159.65 374.17 156.86 377.59 156.86 C 381.01 156.86 383.8 159.65 383.8 163.07 C 383.79 164.2 383.47 165.31 382.88 166.27 L 395.66 179.05 C 396.6 178.48 397.69 178.14 398.86 178.14 C 400.09 178.14 401.23 178.51 402.19 179.12 L 417.57 158.63 C 416.42 157.5 415.7 155.93 415.7 154.2 Z M 387.34 222.45 L 390.89 222.45 L 390.89 217.14 L 387.34 217.14 Z M 424.68 213.59 L 424.66 202.95 L 389.11 202.95 L 389.11 199.41 L 424.65 199.41 L 424.57 165.73 L 428.11 165.73 L 428.11 213.7 C 428.11 215.6 426.58 217.13 424.68 217.14 L 394.43 217.14 L 394.43 222.45 L 408.61 222.45 L 408.61 226 L 392.66 226 L 385.57 226 L 371.39 226 L 371.39 222.45 L 383.8 222.45 L 383.8 217.14 L 355.35 217.14 C 353.44 217.14 351.89 215.59 351.89 213.68 L 351.89 202.95 L 351.89 199.41 L 351.89 192.32 L 355.43 192.32 L 355.43 199.41 L 360.75 199.41 L 360.75 202.95 L 355.43 202.95 L 355.43 213.68 Z M 355.43 176.36 L 351.89 176.36 L 351.89 163.84 C 351.89 161.95 353.42 160.41 355.32 160.41 L 362.99 160.41 C 364.46 153.63 370.5 148.54 377.71 148.54 C 384.92 148.54 390.96 153.63 392.43 160.41 L 408.61 160.41 L 408.61 163.95 L 392.77 163.95 C 392.73 165.52 392.46 167.06 391.95 168.54 L 388.6 167.38 C 389.02 166.17 389.23 164.9 389.23 163.61 C 389.22 157.25 384.07 152.1 377.71 152.09 C 371.35 152.1 366.2 157.25 366.19 163.61 C 366.2 169.97 371.35 175.12 377.71 175.13 C 379.05 175.13 380.38 174.9 381.63 174.45 L 382.84 177.78 C 381.19 178.38 379.46 178.68 377.71 178.68 C 373.58 178.68 369.84 177 367.11 174.3 L 354.99 187.14 L 352.41 184.71 L 364.89 171.49 C 363.53 169.29 362.72 166.71 362.66 163.95 L 355.32 163.95 Z" fill="#e7157b" stroke="none" pointer-events="all" style="fill: light-dark(rgb(231, 21, 123), rgb(255, 129, 217));"/></g></g><g data-cell-id="pErw04oOUeAEHbRT1Cwv-27"><g transform="translate(0.5,0.5)"><path d="M 566.29 187 L 617.9 187 L 663.13 186.56" fill="none" stroke="#000000" stroke-miterlimit="10" pointer-events="stroke" style="stroke: light-dark(rgb(0, 0, 0), rgb(255, 255, 255));"/><path d="M 668.38 186.51 L 661.42 190.08 L 663.13 186.56 L 661.35 183.08 Z" fill="#000000" stroke="#000000" stroke-miterlimit="10" pointer-events="all" style="fill: light-dark(rgb(0, 0, 0), rgb(255, 255, 255)); stroke: light-dark(rgb(0, 0, 0), rgb(255, 255, 255));"/></g></g><g data-cell-id="pErw04oOUeAEHbRT1Cwv-17"><g transform="translate(0.5,0.5)"><rect x="488.5" y="148" width="78" height="78" fill="none" stroke="none" pointer-events="all"/><path d="M 494.92 219.79 L 510.43 219.79 C 511.41 219.79 512.2 219 512.2 218.03 L 512.2 183.9 C 512.2 182.92 511.41 182.13 510.43 182.13 L 494.92 182.13 C 493.94 182.13 493.15 182.92 493.15 183.9 L 493.15 218.03 C 493.15 219 493.94 219.79 494.92 219.79 Z M 496.69 216.26 L 496.69 185.66 L 508.67 185.66 L 508.67 216.26 Z M 519.74 219.79 L 535.26 219.79 C 536.23 219.79 537.02 219 537.02 218.03 L 537.02 191.65 C 537.02 190.68 536.23 189.89 535.26 189.89 L 519.74 189.89 C 518.77 189.89 517.98 190.68 517.98 191.65 L 517.98 218.03 C 517.98 219 518.77 219.79 519.74 219.79 Z M 521.51 216.26 L 521.51 193.42 L 533.49 193.42 L 533.49 216.26 Z M 488.71 226 L 566.29 226 L 566.29 222.47 L 488.71 222.47 Z M 552.32 173.25 C 559.28 173.25 564.95 167.59 564.95 160.62 C 564.95 153.66 559.28 148 552.32 148 C 545.36 148 539.7 153.66 539.7 160.62 C 539.7 167.59 545.36 173.25 552.32 173.25 Z M 552.32 151.53 C 557.34 151.53 561.42 155.61 561.42 160.62 C 561.42 165.64 557.34 169.72 552.32 169.72 C 547.31 169.72 543.23 165.64 543.23 160.62 C 543.23 155.61 547.31 151.53 552.32 151.53 Z M 559.32 175.29 C 554.91 177.39 549.72 177.39 545.32 175.29 C 544.78 175.03 544.14 175.07 543.62 175.39 C 543.11 175.71 542.8 176.28 542.8 176.88 L 542.8 218.03 C 542.8 219 543.59 219.79 544.56 219.79 L 560.08 219.79 C 561.05 219.79 561.84 219 561.84 218.03 L 561.84 176.88 C 561.84 176.28 561.53 175.71 561.02 175.39 C 560.51 175.07 559.86 175.03 559.32 175.29 Z M 558.31 216.26 L 546.33 216.26 L 546.33 179.48 C 550.19 180.71 554.45 180.71 558.31 179.48 Z" fill="#e7157b" stroke="none" pointer-events="all" style="fill: light-dark(rgb(231, 21, 123), rgb(255, 129, 217));"/></g></g><g data-cell-id="pErw04oOUeAEHbRT1Cwv-18"><g transform="translate(0.5,0.5)"><rect x="440" y="236" width="175" height="28" fill="none" stroke="none" pointer-events="all"/></g><g><g fill="#1f2937" font-family="Helvetica" font-weight="bold" text-anchor="middle" font-size="22px" style="fill: light-dark(rgb(31, 41, 55), rgb(196, 204, 216));"><text x="527.5" y="260">Alarms</text></g></g></g><g data-cell-id="pErw04oOUeAEHbRT1Cwv-21"><g transform="translate(0.5,0.5)"><rect x="368" y="78" width="175" height="28" fill="none" stroke="none" pointer-events="all"/></g><g><g fill="#1f2937" font-family="Helvetica" font-weight="bold" text-anchor="middle" font-size="22px" style="fill: light-dark(rgb(31, 41, 55), rgb(196, 204, 216));"><text x="455.5" y="102">CloudWatch</text></g></g></g></g></g></g></svg>